<svg xmlns="http://www.w3.org/2000/svg" viewBox="0 0 520 460" width="520" height="460">
<style>
  .signal-wire{stroke:#5ad1c9;stroke-width:1.5;fill:none}
  .signal-wire.rail{stroke-width:2}
  .dim{font:9px ui-monospace,monospace}
  .title{font:bold 13px sans-serif}
  .rail-label{font:bold 11px sans-serif}
  .mono{font:10px ui-monospace,monospace}
</style>
<text x="20" y="22" class="title" fill="#5ad1c9">cmos_transmission_gate · schematic</text>
<g transform="translate(180, 180)">
<line x1="6" y1="10" x2="6" y2="38" stroke="#7aa2ff" stroke-width="1.5"/>
<line x1="16" y1="10" x2="16" y2="38" stroke="#7aa2ff" stroke-width="1.5"/>
<line x1="16" y1="10" x2="32" y2="10" stroke="#7aa2ff" stroke-width="1.5"/>
<line x1="16" y1="38" x2="32" y2="38" stroke="#7aa2ff" stroke-width="1.5"/>
<polygon points="22,38 28,35 28,41" fill="#7aa2ff"/>
</g>
<text x="192" y="240" class="mono" fill="#d6deeb">Mn</text>
<g transform="translate(416, 180) scale(-1, 1)">
<line x1="6" y1="10" x2="6" y2="38" stroke="#7aa2ff" stroke-width="1.5"/>
<line x1="16" y1="10" x2="16" y2="38" stroke="#7aa2ff" stroke-width="1.5"/>
<line x1="16" y1="10" x2="32" y2="10" stroke="#7aa2ff" stroke-width="1.5"/>
<line x1="16" y1="38" x2="32" y2="38" stroke="#7aa2ff" stroke-width="1.5"/>
<polygon points="22,10 28,7 28,13" fill="#7aa2ff"/>
</g>
<text x="392" y="240" class="mono" fill="#d6deeb">Mp</text>
<g transform="translate(180, 300)">
<line x1="6" y1="10" x2="6" y2="38" stroke="#7aa2ff" stroke-width="1.5"/>
<line x1="16" y1="10" x2="16" y2="38" stroke="#7aa2ff" stroke-width="1.5"/>
<line x1="16" y1="10" x2="32" y2="10" stroke="#7aa2ff" stroke-width="1.5"/>
<line x1="16" y1="38" x2="32" y2="38" stroke="#7aa2ff" stroke-width="1.5"/>
<polygon points="22,38 28,35 28,41" fill="#7aa2ff"/>
</g>
<text x="189" y="360" class="mono" fill="#d6deeb">Mnd</text>
<g transform="translate(416, 300) scale(-1, 1)">
<line x1="6" y1="10" x2="6" y2="38" stroke="#7aa2ff" stroke-width="1.5"/>
<line x1="16" y1="10" x2="16" y2="38" stroke="#7aa2ff" stroke-width="1.5"/>
<line x1="16" y1="10" x2="32" y2="10" stroke="#7aa2ff" stroke-width="1.5"/>
<line x1="16" y1="38" x2="32" y2="38" stroke="#7aa2ff" stroke-width="1.5"/>
<polygon points="22,10 28,7 28,13" fill="#7aa2ff"/>
</g>
<text x="389" y="360" class="mono" fill="#d6deeb">Mpd</text>
<line x1="212" y1="190" x2="212" y2="180" class="signal-wire terminal-stub"/>
<line x1="384" y1="190" x2="384" y2="180" class="signal-wire terminal-stub"/>
<line x1="212" y1="180" x2="384" y2="180" class="signal-wire"/>
<line x1="186" y1="204" x2="176" y2="204" class="signal-wire terminal-stub"/>
<line x1="384" y1="218" x2="384" y2="228" class="signal-wire terminal-stub"/>
<line x1="176" y1="204" x2="176" y2="224" class="signal-wire"/>
<path d="M 176 224 A 4 4 0 0 1 176 232" class="signal-wire wire-hop"/>
<line x1="176" y1="232" x2="176" y2="240" class="signal-wire"/>
<line x1="176" y1="240" x2="384" y2="240" class="signal-wire"/>
<line x1="384" y1="240" x2="384" y2="228" class="signal-wire"/>
<line x1="212" y1="218" x2="212" y2="228" class="signal-wire terminal-stub"/>
<line x1="186" y1="324" x2="176" y2="324" class="signal-wire terminal-stub"/>
<line x1="410" y1="324" x2="420" y2="324" class="signal-wire terminal-stub"/>
<line x1="212" y1="228" x2="164" y2="228" class="signal-wire"/>
<line x1="164" y1="228" x2="164" y2="240" class="signal-wire"/>
<line x1="164" y1="240" x2="176" y2="240" class="signal-wire"/>
<line x1="176" y1="240" x2="176" y2="290" class="signal-wire"/>
<line x1="176" y1="290" x2="420" y2="290" class="signal-wire"/>
<line x1="420" y1="290" x2="420" y2="324" class="signal-wire"/>
<line x1="410" y1="204" x2="420" y2="204" class="signal-wire terminal-stub"/>
<line x1="212" y1="310" x2="212" y2="300" class="signal-wire terminal-stub"/>
<line x1="384" y1="338" x2="384" y2="348" class="signal-wire terminal-stub"/>
<line x1="420" y1="204" x2="430" y2="204" class="signal-wire"/>
<line x1="430" y1="204" x2="430" y2="348" class="signal-wire"/>
<line x1="430" y1="348" x2="300" y2="348" class="signal-wire"/>
<line x1="300" y1="348" x2="300" y2="300" class="signal-wire"/>
<line x1="300" y1="300" x2="212" y2="300" class="signal-wire"/>
<line x1="40" y1="50" x2="480" y2="50" class="signal-wire rail"/>
<text x="40" y="42" class="rail-label" fill="#5ad1c9">VDD</text>
<line x1="384" y1="310" x2="396" y2="310" class="signal-wire"/>
<line x1="396" y1="310" x2="396" y2="50" class="signal-wire"/>
<line x1="40" y1="420" x2="480" y2="420" class="signal-wire rail"/>
<text x="40" y="436" class="dim" fill="#8a97ad">GND</text>
<line x1="212" y1="338" x2="212" y2="420" class="signal-wire"/>
<text x="50" y="194" class="dim" fill="#8a97ad">SIG</text>
<line x1="70" y1="190" x2="384" y2="190" class="signal-wire io-stub"/>
<text x="458" y="328" class="dim" fill="#8a97ad">CTRL</text>
<line x1="450" y1="324" x2="410" y2="324" class="signal-wire io-stub"/>
<circle cx="384" cy="348" r="3" fill="#5ad1c9"/>
</svg>