<svg xmlns="http://www.w3.org/2000/svg" viewBox="0 0 580 550" width="580" height="550">
<style>
  .wire{stroke="#5ad1c9" stroke-width="1.5";fill:none}
</style>
<text x="20" y="22" fill="#5ad1c9" font="bold 13px sans-serif">diff_pair_comparator · schematic</text>
<g transform="translate(160, 400)">
<line x1="6" y1="10" x2="6" y2="38" stroke="#7aa2ff" stroke-width="1.5"/>
<line x1="16" y1="10" x2="16" y2="38" stroke="#7aa2ff" stroke-width="1.5"/>
<line x1="16" y1="10" x2="32" y2="10" stroke="#7aa2ff" stroke-width="1.5"/>
<line x1="16" y1="38" x2="32" y2="38" stroke="#7aa2ff" stroke-width="1.5"/>
<polygon points="22,38 28,35 28,41" fill="#7aa2ff"/>
</g>
<text x="172" y="460" fill="#d6deeb" font="10px ui-monospace,monospace">M8</text>
<g transform="translate(240, 320)">
<line x1="6" y1="10" x2="6" y2="38" stroke="#7aa2ff" stroke-width="1.5"/>
<line x1="16" y1="10" x2="16" y2="38" stroke="#7aa2ff" stroke-width="1.5"/>
<line x1="16" y1="10" x2="32" y2="10" stroke="#7aa2ff" stroke-width="1.5"/>
<line x1="16" y1="38" x2="32" y2="38" stroke="#7aa2ff" stroke-width="1.5"/>
<polygon points="22,38 28,35 28,41" fill="#7aa2ff"/>
</g>
<text x="252" y="380" fill="#d6deeb" font="10px ui-monospace,monospace">M5</text>
<g transform="translate(460, 200)">
<line x1="6" y1="10" x2="6" y2="38" stroke="#7aa2ff" stroke-width="1.5"/>
<line x1="16" y1="10" x2="16" y2="38" stroke="#7aa2ff" stroke-width="1.5"/>
<line x1="16" y1="10" x2="32" y2="10" stroke="#7aa2ff" stroke-width="1.5"/>
<line x1="16" y1="38" x2="32" y2="38" stroke="#7aa2ff" stroke-width="1.5"/>
<polygon points="22,38 28,35 28,41" fill="#7aa2ff"/>
</g>
<text x="472" y="260" fill="#d6deeb" font="10px ui-monospace,monospace">M7</text>
<g transform="translate(140, 230)">
<line x1="6" y1="10" x2="6" y2="38" stroke="#7aa2ff" stroke-width="1.5"/>
<line x1="16" y1="10" x2="16" y2="38" stroke="#7aa2ff" stroke-width="1.5"/>
<line x1="16" y1="10" x2="32" y2="10" stroke="#7aa2ff" stroke-width="1.5"/>
<line x1="16" y1="38" x2="32" y2="38" stroke="#7aa2ff" stroke-width="1.5"/>
<polygon points="22,38 28,35 28,41" fill="#7aa2ff"/>
</g>
<text x="152" y="290" fill="#d6deeb" font="10px ui-monospace,monospace">M1</text>
<g transform="translate(376, 230) scale(-1, 1)">
<line x1="6" y1="10" x2="6" y2="38" stroke="#7aa2ff" stroke-width="1.5"/>
<line x1="16" y1="10" x2="16" y2="38" stroke="#7aa2ff" stroke-width="1.5"/>
<line x1="16" y1="10" x2="32" y2="10" stroke="#7aa2ff" stroke-width="1.5"/>
<line x1="16" y1="38" x2="32" y2="38" stroke="#7aa2ff" stroke-width="1.5"/>
<polygon points="22,38 28,35 28,41" fill="#7aa2ff"/>
</g>
<text x="352" y="290" fill="#d6deeb" font="10px ui-monospace,monospace">M2</text>
<g transform="translate(140, 120)">
<line x1="6" y1="10" x2="6" y2="38" stroke="#7aa2ff" stroke-width="1.5"/>
<line x1="16" y1="10" x2="16" y2="38" stroke="#7aa2ff" stroke-width="1.5"/>
<line x1="16" y1="10" x2="32" y2="10" stroke="#7aa2ff" stroke-width="1.5"/>
<line x1="16" y1="38" x2="32" y2="38" stroke="#7aa2ff" stroke-width="1.5"/>
<polygon points="22,10 28,7 28,13" fill="#7aa2ff"/>
</g>
<text x="152" y="180" fill="#d6deeb" font="10px ui-monospace,monospace">M3</text>
<g transform="translate(376, 120) scale(-1, 1)">
<line x1="6" y1="10" x2="6" y2="38" stroke="#7aa2ff" stroke-width="1.5"/>
<line x1="16" y1="10" x2="16" y2="38" stroke="#7aa2ff" stroke-width="1.5"/>
<line x1="16" y1="10" x2="32" y2="10" stroke="#7aa2ff" stroke-width="1.5"/>
<line x1="16" y1="38" x2="32" y2="38" stroke="#7aa2ff" stroke-width="1.5"/>
<polygon points="22,10 28,7 28,13" fill="#7aa2ff"/>
</g>
<text x="352" y="180" fill="#d6deeb" font="10px ui-monospace,monospace">M4</text>
<g transform="translate(460, 120)">
<line x1="6" y1="10" x2="6" y2="38" stroke="#7aa2ff" stroke-width="1.5"/>
<line x1="16" y1="10" x2="16" y2="38" stroke="#7aa2ff" stroke-width="1.5"/>
<line x1="16" y1="10" x2="32" y2="10" stroke="#7aa2ff" stroke-width="1.5"/>
<line x1="16" y1="38" x2="32" y2="38" stroke="#7aa2ff" stroke-width="1.5"/>
<polygon points="22,10 28,7 28,13" fill="#7aa2ff"/>
</g>
<text x="472" y="180" fill="#d6deeb" font="10px ui-monospace,monospace">M6</text>
<line x1="170" y1="420" x2="300" y2="420" stroke="#5ad1c9" stroke-width="1.5"/>
<line x1="300" y1="420" x2="300" y2="330" stroke="#5ad1c9" stroke-width="1.5"/>
<line x1="250" y1="340" x2="300" y2="340" stroke="#5ad1c9" stroke-width="1.5"/>
<line x1="300" y1="340" x2="300" y2="330" stroke="#5ad1c9" stroke-width="1.5"/>
<line x1="470" y1="220" x2="300" y2="220" stroke="#5ad1c9" stroke-width="1.5"/>
<line x1="300" y1="220" x2="300" y2="330" stroke="#5ad1c9" stroke-width="1.5"/>
<line x1="270" y1="330" x2="260" y2="330" stroke="#5ad1c9" stroke-width="1.5"/>
<line x1="260" y1="330" x2="260" y2="290" stroke="#5ad1c9" stroke-width="1.5"/>
<line x1="170" y1="270" x2="260" y2="270" stroke="#5ad1c9" stroke-width="1.5"/>
<line x1="260" y1="270" x2="260" y2="290" stroke="#5ad1c9" stroke-width="1.5"/>
<line x1="340" y1="270" x2="260" y2="270" stroke="#5ad1c9" stroke-width="1.5"/>
<line x1="260" y1="270" x2="260" y2="290" stroke="#5ad1c9" stroke-width="1.5"/>
<line x1="490" y1="210" x2="490" y2="130" stroke="#5ad1c9" stroke-width="1.5"/>
<line x1="170" y1="240" x2="230" y2="240" stroke="#5ad1c9" stroke-width="1.5"/>
<line x1="230" y1="240" x2="230" y2="170" stroke="#5ad1c9" stroke-width="1.5"/>
<line x1="150" y1="140" x2="230" y2="140" stroke="#5ad1c9" stroke-width="1.5"/>
<line x1="230" y1="140" x2="230" y2="170" stroke="#5ad1c9" stroke-width="1.5"/>
<line x1="370" y1="140" x2="230" y2="140" stroke="#5ad1c9" stroke-width="1.5"/>
<line x1="230" y1="140" x2="230" y2="170" stroke="#5ad1c9" stroke-width="1.5"/>
<line x1="340" y1="240" x2="380" y2="240" stroke="#5ad1c9" stroke-width="1.5"/>
<line x1="380" y1="240" x2="380" y2="170" stroke="#5ad1c9" stroke-width="1.5"/>
<line x1="340" y1="130" x2="380" y2="130" stroke="#5ad1c9" stroke-width="1.5"/>
<line x1="380" y1="130" x2="380" y2="170" stroke="#5ad1c9" stroke-width="1.5"/>
<line x1="470" y1="140" x2="380" y2="140" stroke="#5ad1c9" stroke-width="1.5"/>
<line x1="380" y1="140" x2="380" y2="170" stroke="#5ad1c9" stroke-width="1.5"/>
<line x1="40" y1="50" x2="540" y2="50" stroke="#5ad1c9" stroke-width="2"/>
<text x="40" y="42" fill="#5ad1c9" font="bold 11px sans-serif">VDD</text>
<line x1="170" y1="50" x2="170" y2="160" stroke="#5ad1c9" stroke-width="1.5"/>
<line x1="340" y1="50" x2="340" y2="160" stroke="#5ad1c9" stroke-width="1.5"/>
<line x1="490" y1="50" x2="490" y2="160" stroke="#5ad1c9" stroke-width="1.5"/>
<line x1="40" y1="510" x2="540" y2="510" stroke="#5ad1c9" stroke-width="2"/>
<text x="40" y="526" fill="#8a97ad" font="9px ui-monospace,monospace">GND</text>
<line x1="190" y1="440" x2="190" y2="510" stroke="#5ad1c9" stroke-width="1.5"/>
<line x1="270" y1="360" x2="270" y2="510" stroke="#5ad1c9" stroke-width="1.5"/>
<line x1="490" y1="240" x2="490" y2="510" stroke="#5ad1c9" stroke-width="1.5"/>
<text x="50" y="238" fill="#8a97ad" font="9px ui-monospace,monospace">IN+</text>
<line x1="70" y1="234" x2="130" y2="234" stroke="#5ad1c9" stroke-width="1.5"/>
<text x="350" y="238" fill="#8a97ad" font="9px ui-monospace,monospace">IN-</text>
<line x1="370" y1="234" x2="330" y2="234" stroke="#5ad1c9" stroke-width="1.5"/>
<text x="500" y="128" fill="#8a97ad" font="9px ui-monospace,monospace">OUT</text>
<line x1="480" y1="124" x2="450" y2="124" stroke="#5ad1c9" stroke-width="1.5"/>
<circle cx="300" cy="330" r="3" fill="#5ad1c9"/>
<circle cx="380" cy="170" r="3" fill="#5ad1c9"/>
<circle cx="230" cy="170" r="3" fill="#5ad1c9"/>
<circle cx="260" cy="290" r="3" fill="#5ad1c9"/>
<text x="20" y="532" fill="#3fd17a" font="bold 11px sans-serif">PASS</text></svg>